<svg width="282" height="112" viewBox="0 0 282 112" fill="none" xmlns="http://www.w3.org/2000/svg">
<path d="M3.55398 31.4545H17.4858L29.304 60.2727H29.8494L41.6676 31.4545H55.5994V78H44.6449V49.4091H44.2585L33.0767 77.7045H26.0767L14.8949 49.25H14.5085V78H3.55398V31.4545ZM69.4119 91.0909C68.0786 91.0909 66.821 90.9848 65.6392 90.7727C64.4574 90.5758 63.4422 90.3106 62.5938 89.9773L65.0483 81.9091C66.1392 82.2727 67.1241 82.4848 68.0028 82.5455C68.8968 82.6061 69.6619 82.4621 70.2983 82.1136C70.9498 81.7803 71.4498 81.1818 71.7983 80.3182L72.2301 79.2727L59.821 43.0909H71.4574L77.8892 68H78.2528L84.7756 43.0909H96.4801L83.321 81.3409C82.6847 83.25 81.7831 84.9318 80.6165 86.3864C79.465 87.8561 77.9725 89.0076 76.1392 89.8409C74.321 90.6742 72.0786 91.0909 69.4119 91.0909ZM169.491 78V43.0909H180.605V78H169.491ZM175.06 39.0227C173.499 39.0227 172.158 38.5076 171.037 37.4773C169.916 36.4318 169.355 35.1742 169.355 33.7045C169.355 32.25 169.916 31.0076 171.037 29.9773C172.158 28.9318 173.499 28.4091 175.06 28.4091C176.635 28.4091 177.976 28.9318 179.082 29.9773C180.204 31.0076 180.764 32.25 180.764 33.7045C180.764 35.1742 180.204 36.4318 179.082 37.4773C177.976 38.5076 176.635 39.0227 175.06 39.0227ZM187.679 78V43.0909H198.247V49.5H198.634C199.361 47.3788 200.588 45.7045 202.315 44.4773C204.043 43.25 206.103 42.6364 208.497 42.6364C210.921 42.6364 212.997 43.2576 214.724 44.5C216.452 45.7424 217.55 47.4091 218.02 49.5H218.384C219.035 47.4242 220.308 45.7652 222.202 44.5227C224.096 43.2652 226.33 42.6364 228.906 42.6364C232.209 42.6364 234.891 43.697 236.952 45.8182C239.012 47.9242 240.043 50.8182 240.043 54.5V78H228.929V57.0455C228.929 55.303 228.482 53.9773 227.588 53.0682C226.694 52.1439 225.535 51.6818 224.111 51.6818C222.58 51.6818 221.376 52.1818 220.497 53.1818C219.634 54.1667 219.202 55.4924 219.202 57.1591V78H208.52V56.9318C208.52 55.3106 208.08 54.0303 207.202 53.0909C206.323 52.1515 205.164 51.6818 203.724 51.6818C202.755 51.6818 201.899 51.9167 201.156 52.3864C200.414 52.8409 199.83 53.4924 199.406 54.3409C198.997 55.1894 198.793 56.1894 198.793 57.3409V78H187.679ZM263.247 78.6591C259.596 78.6591 256.444 77.9394 253.793 76.5C251.156 75.0455 249.126 72.9773 247.702 70.2955C246.293 67.5985 245.588 64.3939 245.588 60.6818C245.588 57.0758 246.3 53.9242 247.724 51.2273C249.149 48.5152 251.156 46.4091 253.747 44.9091C256.338 43.3939 259.391 42.6364 262.906 42.6364C265.391 42.6364 267.664 43.0227 269.724 43.7955C271.785 44.5682 273.565 45.7121 275.065 47.2273C276.565 48.7424 277.732 50.6136 278.565 52.8409C279.399 55.053 279.815 57.5909 279.815 60.4545V63.2273H249.474V56.7727H269.474C269.459 55.5909 269.179 54.5379 268.634 53.6136C268.088 52.6894 267.338 51.9697 266.384 51.4545C265.444 50.9242 264.361 50.6591 263.134 50.6591C261.891 50.6591 260.777 50.9394 259.793 51.5C258.808 52.0455 258.027 52.7955 257.452 53.75C256.876 54.6894 256.573 55.7576 256.543 56.9545V63.5227C256.543 64.947 256.823 66.197 257.384 67.2727C257.944 68.3333 258.74 69.1591 259.77 69.75C260.8 70.3409 262.027 70.6364 263.452 70.6364C264.437 70.6364 265.33 70.5 266.134 70.2273C266.937 69.9545 267.626 69.553 268.202 69.0227C268.777 68.4924 269.209 67.8409 269.497 67.0682L279.702 67.3636C279.277 69.6515 278.346 71.6439 276.906 73.3409C275.482 75.0227 273.611 76.3333 271.293 77.2727C268.974 78.197 266.293 78.6591 263.247 78.6591Z" fill="white"/>
<path d="M141 34L163.517 92.5H118.483L141 34Z" fill="url(#paint0_linear_46_168)"/>
<path d="M141 78L118.483 19.5L163.517 19.5L141 78Z" fill="white"/>
<path d="M141 34L163.517 92.5H118.483L141 34Z" fill="url(#paint1_linear_46_168)"/>
<path d="M141 78L118.483 19.5L163.517 19.5L141 78Z" fill="white"/>
<defs>
<linearGradient id="paint0_linear_46_168" x1="141" y1="34" x2="141" y2="112" gradientUnits="userSpaceOnUse">
<stop offset="0.475962" stop-color="#638172"/>
<stop offset="0.663462" stop-color="#0773CB"/>
</linearGradient>
<linearGradient id="paint1_linear_46_168" x1="141" y1="34" x2="141" y2="112" gradientUnits="userSpaceOnUse">
<stop offset="0.475962" stop-color="#638172"/>
<stop offset="0.663462" stop-color="#0773CB"/>
</linearGradient>
</defs>
</svg>
